<?xml version="1.0" standalone="no"?>
<!DOCTYPE svg PUBLIC "-//W3C//DTD SVG 20010904//EN"
 "http://www.w3.org/TR/2001/REC-SVG-20010904/DTD/svg10.dtd">
<svg version="1.0" xmlns="http://www.w3.org/2000/svg"
 width="257.000000pt" height="256.000000pt" viewBox="0 0 257.000000 256.000000"
 preserveAspectRatio="xMidYMid meet">

<g transform="translate(0.000000,256.000000) scale(0.100000,-0.100000)"
fill="#000000" stroke="none">
<path d="M642 2520 c-165 -23 -312 -123 -408 -277 -81 -129 -77 -88 -82 -900
-4 -801 -2 -832 60 -961 32 -69 167 -214 223 -242 17 -8 41 -22 55 -31 14 -9
50 -25 80 -35 52 -18 93 -19 690 -19 l635 0 42 23 c23 12 47 22 53 22 6 0 47
24 90 52 89 60 180 163 217 247 51 115 53 145 53 812 l0 619 -82 0 c-73 0 -89
-4 -133 -29 -135 -77 -177 -178 -219 -521 -8 -69 -18 -159 -21 -200 -9 -107
-34 -257 -51 -309 -14 -42 -81 -150 -121 -196 -37 -42 -125 -108 -161 -121
-20 -7 -63 -13 -94 -14 l-58 0 0 114 0 114 43 26 c74 43 127 132 141 236 3 25
15 110 26 190 11 80 26 207 35 283 31 274 84 406 220 542 59 60 99 90 155 117
80 39 206 78 253 78 27 0 29 2 22 28 -24 102 -150 241 -265 294 -144 67 -83
61 -740 64 -327 1 -623 -2 -658 -6z m684 -876 c18 -9 51 -36 74 -60 34 -37 40
-50 40 -86 0 -53 -28 -101 -72 -124 -46 -24 -159 -24 -221 0 -37 15 -63 18
-124 13 -41 -3 -80 -10 -85 -15 -17 -17 -3 -416 17 -486 24 -86 59 -150 101
-184 l37 -30 -13 -98 c-17 -140 -19 -143 -72 -133 -103 19 -178 71 -241 166
-85 127 -117 285 -117 570 0 166 -2 194 -16 200 -23 9 -130 8 -206 -1 l-68 -9
0 135 c0 91 4 138 12 146 9 9 126 12 466 12 395 0 458 -2 488 -16z"/>
</g>
</svg>
